<svg xmlns="http://www.w3.org/2000/svg" shape-rendering="geometricPrecision" text-rendering="geometricPrecision" image-rendering="optimizeQuality" fill-rule="evenodd" clip-rule="evenodd" viewBox="0 0 512 511.995"><path fill="#BBBCBF" fill-rule="nonzero" d="M256 0c70.685 0 134.689 28.659 181.015 74.984C483.341 121.306 512 185.311 512 256c0 70.684-28.659 134.689-74.985 181.015-46.326 46.322-110.33 74.98-181.015 74.98-70.685 0-134.689-28.658-181.015-74.98C28.659 390.689 0 326.684 0 256c0-70.689 28.659-134.694 74.985-181.016C121.307 28.659 185.311 0 256 0z"/><ellipse fill="#D4D4D4" cx="256" cy="255.998" rx="250.992" ry="250.991"/><path fill="#B8C3C5" d="M503.753 215.692A252.691 252.691 0 01506.989 256c0 138.614-112.371 250.988-250.989 250.988S5.007 394.614 5.007 256c0-21.858 2.801-43.056 8.051-63.271l246.435 183.476 244.26-160.513z"/><path fill="#838B8B" fill-rule="nonzero" d="M256 58.922c54.414 0 103.688 22.061 139.353 57.725 35.664 35.661 57.725 84.935 57.725 139.349 0 54.414-22.061 103.688-57.725 139.352-35.665 35.664-84.939 57.726-139.353 57.726-54.414 0-103.688-22.062-139.349-57.726-35.664-35.664-57.725-84.938-57.725-139.352s22.061-103.688 57.725-139.349C152.312 80.983 201.586 58.922 256 58.922z"/><circle fill="#909B9C" cx="256.001" cy="255.997" r="192.069"/><path fill="#4E5558" fill-rule="nonzero" d="M177.646 237.124l13.766-31.01h51.918c-.658-2.209-1.786-4.37-3.43-6.484-1.644-2.114-3.665-3.947-6.061-5.497-2.396-1.551-5.074-2.82-8.034-3.759-2.96-.987-6.108-1.457-9.397-1.457h-38.762l13.766-31.01h148.613l-13.767 31.01h-35.896a25.094 25.094 0 013.947 3.806c1.221 1.41 2.302 2.866 3.242 4.463.892 1.551 1.691 3.102 2.349 4.652.611 1.55 1.033 3.007 1.221 4.276h38.904l-13.767 31.01h-28.144c-2.067 5.262-5.121 10.242-9.209 14.941-4.087 4.745-8.833 8.927-14.236 12.686-5.45 3.758-11.323 6.859-17.666 9.444a84.001 84.001 0 01-19.311 5.168l78.089 80.391h-61.738l-69.632-76.397v-28.473h30.822c2.96 0 5.873-.47 8.739-1.457 2.913-.987 5.591-2.302 7.988-3.947a29.297 29.297 0 006.343-5.638c1.785-2.161 3.054-4.369 3.806-6.718h-64.463z"/><path fill="#DFDFE0" fill-rule="nonzero" d="M171.982 231.46l13.766-31.01h51.919c-.658-2.208-1.786-4.369-3.43-6.484-1.645-2.114-3.665-3.947-6.061-5.497-2.397-1.551-5.075-2.819-8.035-3.759-2.96-.986-6.108-1.456-9.397-1.456h-38.762l13.766-31.011h148.613l-13.766 31.011h-35.897a25.004 25.004 0 013.947 3.806c1.222 1.409 2.302 2.866 3.242 4.463.893 1.551 1.692 3.101 2.349 4.651.611 1.551 1.034 3.007 1.222 4.276h38.903l-13.766 31.01h-28.144c-2.068 5.262-5.122 10.243-9.209 14.941-4.088 4.746-8.833 8.927-14.237 12.686-5.45 3.759-11.323 6.86-17.666 9.444a84.004 84.004 0 01-19.311 5.169l78.089 80.39h-61.738l-69.631-76.397V249.22h30.821c2.961 0 5.874-.47 8.74-1.456 2.913-.987 5.591-2.302 7.987-3.947a29.326 29.326 0 006.343-5.638c1.786-2.162 3.054-4.37 3.806-6.719h-64.463z"/></svg>